# xmcd
#
# Track frame offsets:
#	150
#	12715
#	33128
#	53089
#	70571
#	89025
#	107220
#	123104
#	139534
#	153584
#	173018
#	193255
#	213788
#	237655
#	246629
#	270451
#	289424
#
# Disc length: 4109 seconds
#
# Revision: 1
# Processed by: cddbd v1.4PL0 Copyright (c) Steve Scherf et al.
# Submitted via: audiograbber 1.82.01
#
DISCID=fb100b11
DTITLE=Brian McKnight - Superhero
DYEAR=2001
DGENRE=Soul
TTITLE0=Superhero Prelude
TTITLE1=When You Wanna Come
TTITLE2=What's It Gonna Be
TTITLE3=My Kinda Girl f. Justin Timberlake
TTITLE4=Love Of My Life
TTITLE5=Whatever You Want
TTITLE6=Everything
TTITLE7=Get Over You
TTITLE8=Superhero
TTITLE9=Still
TTITLE10=Don't Know Where To Start f. Nate Dogg
TTITLE11=The Biggest Part Of Me
TTITLE12=When Will I See You Again f. Fred Hammond
TTITLE13=For You
TTITLE14=Groovin' Tonight f. St. Lunatics
TTITLE15=Bonus - U Should Be Mine [Don't Waste Your Time] (rmx) f. Mase
TTITLE16=Bonus - Thinking 'Bout Me
EXTD=
EXTT0=
EXTT1=
EXTT2=
EXTT3=
EXTT4=
EXTT5=
EXTT6=
EXTT7=
EXTT8=
EXTT9=
EXTT10=
EXTT11=
EXTT12=
EXTT13=
EXTT14=
EXTT15=
EXTT16=
PLAYORDER=
